# File created by Blade
# Date/Time:  Tue Jan 27 19:23:16 2015
# Frame Rate: 120.000 fps
#------------------------------------------------------
:FULLY-SPECIFIED
:DEGREES
3831
root 1.180767 32.213928 0.373217 -2.011101 -20.545645 -2.242188
Spine 3.105319 -14.550129 -5.233274
Head 14.229900 -0.584163 7.304092
LeftShoulder -11.773378 2.957722 30.462199
LeftArm -9.827328 41.088953 -109.325090
LeftForeArm 4.448784 -0.000000 18.512310
LeftHand 9.574796 0.000000 -4.648788
LeftHandThumb1 -26.253704 0.000000 33.147579
RightShoulder -26.379478 -19.837408 -43.018122
RightArm 157.564529 119.141950 208.568690
RightForeArm 23.260644 -0.000000 4.262760
RightHand 26.955366 -0.000000 -19.728394
RightHandThumb1 -24.326973 -0.000000 -32.862282
LeftUpLeg 16.338999 20.907808 9.078681
LeftLeg -0.967940 -0.000000 0.000000
LeftFoot -18.641438 13.456334 -27.788145
LeftToeBase 17.001230 -0.000000 -0.000000
RightUpLeg 6.355633 7.351108 8.898099
RightLeg 2.505850 -0.000000 -0.000000
RightFoot -9.468108 -9.686627 10.558297
RightToeBase 13.928059 -0.000000 -0.000000
3832
root 1.173460 32.211505 0.379676 -1.992867 -20.546841 -2.254808
Spine 3.035937 -14.518108 -5.209074
Head 14.231812 -0.570776 7.255253
LeftShoulder -11.750089 2.934790 30.506472
LeftArm -9.904558 41.240086 -109.392916
LeftForeArm 4.486799 -0.000000 18.543814
LeftHand 9.568102 0.000000 -4.670037
LeftHandThumb1 -26.253704 0.000000 33.147579
RightShoulder -26.453617 -19.906644 -42.886698
RightArm 158.028137 119.634753 209.175706
RightForeArm 23.255706 0.000000 3.958234
RightHand 26.962259 -0.000000 -19.481265
RightHandThumb1 -24.326973 -0.000000 -32.862282
LeftUpLeg 16.367328 21.103419 9.158706
LeftLeg -0.976222 -0.000000 0.000000
LeftFoot -18.574724 13.277748 -27.746866
LeftToeBase 17.025692 -0.000000 -0.000000
RightUpLeg 6.390832 7.342359 8.917296
RightLeg 2.440012 -0.000000 -0.000000
RightFoot -9.450618 -9.675983 10.556742
RightToeBase 13.888835 -0.000000 -0.000000
3833
root 1.172534 32.209824 0.384070 -1.966834 -20.495640 -2.248485
Spine 2.957266 -14.537828 -5.180481
Head 14.233906 -0.523228 7.190251
LeftShoulder -11.714938 2.923871 30.521011
LeftArm -9.954620 41.359657 -109.434695
LeftForeArm 4.581176 -0.000000 18.591332
LeftHand 9.512347 -0.000000 -4.967464
LeftHandThumb1 -26.253704 0.000000 33.147579
RightShoulder -26.485742 -19.965181 -42.834134
RightArm 158.462664 120.216984 209.783997
RightForeArm 23.531509 -0.000000 3.620135
RightHand 26.991139 -0.000000 -19.280806
RightHandThumb1 -24.326973 -0.000000 -32.862282
LeftUpLeg 16.368533 21.036992 9.134646
LeftLeg -1.052644 -0.000000 0.000000
LeftFoot -18.551340 13.296508 -27.749675
LeftToeBase 17.002419 -0.000000 -0.000000
RightUpLeg 6.406245 7.287835 8.904188
RightLeg 2.371046 -0.000000 -0.000000
RightFoot -9.461388 -9.658702 10.570221
RightToeBase 14.004154 -0.000000 -0.000000
3834
root 1.169391 32.208648 0.390071 -1.959342 -20.448000 -2.249668
Spine 2.897500 -14.575720 -5.153170
Head 14.228369 -0.429823 7.164419
LeftShoulder -11.701944 2.946360 30.533760
LeftArm -9.971330 41.438105 -109.449917
LeftForeArm 4.605226 -0.000000 18.631459
LeftHand 9.474717 -0.000000 -4.691907
LeftHandThumb1 -26.253704 0.000000 33.147579
RightShoulder -26.477759 -20.017828 -42.821050
RightArm 158.797136 120.699115 210.297896
RightForeArm 23.950547 -0.000000 3.279557
RightHand 27.102714 -0.000000 -19.051948
RightHandThumb1 -24.326973 -0.000000 -32.862282
LeftUpLeg 16.376058 21.160762 9.180911
LeftLeg -1.054130 -0.000000 0.000000
LeftFoot -18.480330 13.163675 -27.682488
LeftToeBase 16.966873 -0.000000 -0.000000
RightUpLeg 6.451641 7.273892 8.908913
RightLeg 2.295411 -0.000000 -0.000000
RightFoot -9.454316 -9.689001 10.555769
RightToeBase 13.978415 -0.000000 -0.000000
3835
root 1.171250 32.209048 0.394317 -1.955293 -20.353828 -2.240299
Spine 2.854005 -14.663325 -5.127492
Head 14.214832 -0.357577 7.131912
LeftShoulder -11.698836 2.975044 30.519064
LeftArm -9.946395 41.464215 -109.423699
LeftForeArm 4.680151 -0.000000 18.650817
LeftHand 9.464651 -0.000000 -4.751707
LeftHandThumb1 -26.253704 0.000000 33.147579
RightShoulder -26.446906 -20.066543 -42.830415
RightArm 158.975707 121.043991 210.668743
RightForeArm 24.462143 -0.000000 2.985974
RightHand 27.206823 -0.000000 -18.882769
RightHandThumb1 -24.326973 -0.000000 -32.862282
LeftUpLeg 16.347397 21.085510 9.153617
LeftLeg -1.049717 -0.000000 0.000000
LeftFoot -18.507435 13.140548 -27.708382
LeftToeBase 16.998899 -0.000000 -0.000000
RightUpLeg 6.481576 7.187571 8.887069
RightLeg 2.234427 -0.000000 -0.000000
RightFoot -9.457334 -9.657464 10.599190
RightToeBase 14.022457 -0.000000 -0.000000
3836
root 1.169842 32.209801 0.400864 -1.961605 -20.283582 -2.233254
Spine 2.811113 -14.723657 -5.104269
Head 14.216291 -0.323078 7.108360
LeftShoulder -11.697726 3.005776 30.494489
LeftArm -9.933979 41.464670 -109.390340
LeftForeArm 4.766253 0.000000 18.662162
LeftHand 9.520555 0.000000 -4.740674
LeftHandThumb1 -26.253704 0.000000 33.147579
RightShoulder -26.427277 -20.149960 -42.834560
RightArm 158.947500 121.044110 210.835890
RightForeArm 24.835888 0.000000 2.825326
RightHand 27.346010 -0.000000 -18.720412
RightHandThumb1 -24.326973 -0.000000 -32.862282
LeftUpLeg 16.346454 21.055526 9.151820
LeftLeg -1.063728 -0.000000 0.000000
LeftFoot -18.460139 13.131101 -27.688395
LeftToeBase 17.044134 -0.000000 -0.000000
RightUpLeg 6.525450 7.162097 8.884358
RightLeg 2.183411 -0.000000 -0.000000
RightFoot -9.457253 -9.695965 10.622953
RightToeBase 13.996475 -0.000000 -0.000000
3837
root 1.170402 32.211340 0.407405 -1.966856 -20.206709 -2.224890
Spine 2.762925 -14.825282 -5.075825
Head 14.236449 -0.276309 7.073027
LeftShoulder -11.727332 3.060351 30.449288
LeftArm -9.894621 41.409370 -109.333438
LeftForeArm 4.828701 -0.000000 18.653827
LeftHand 9.542523 0.000000 -4.806357
LeftHandThumb1 -26.253704 0.000000 33.147579
RightShoulder -26.378929 -20.191355 -42.854966
RightArm 158.788257 120.893971 210.842439
RightForeArm 25.164576 0.000000 2.737473
RightHand 27.468853 -0.000000 -18.769442
RightHandThumb1 -24.326973 -0.000000 -32.862282
LeftUpLeg 16.332378 20.989494 9.130578
LeftLeg -1.044286 -0.000000 0.000000
LeftFoot -18.426344 13.129063 -27.619320
LeftToeBase 16.845495 -0.000000 -0.000000
RightUpLeg 6.539887 7.063342 8.870156
RightLeg 2.179277 -0.000000 -0.000000
RightFoot -9.456991 -9.692459 10.586036
RightToeBase 14.042740 -0.000000 -0.000000
3838
root 1.168234 32.212283 0.413088 -1.981187 -20.127429 -2.213586
Spine 2.735525 -14.883184 -5.072105
Head 14.231218 -0.280420 7.095672
LeftShoulder -11.743214 3.097411 30.430553
LeftArm -9.831852 41.316696 -109.250576
LeftForeArm 4.760243 -0.000000 18.607741
LeftHand 9.711457 0.000000 -5.026617
LeftHandThumb1 -26.253704 0.000000 33.147579
RightShoulder -26.388752 -20.226595 -42.849968
RightArm 158.515268 120.602863 210.692297
RightForeArm 25.311491 -0.000000 2.729439
RightHand 27.433537 -0.000000 -18.873007
RightHandThumb1 -24.326973 -0.000000 -32.862282
LeftUpLeg 16.323872 20.981178 9.137554
LeftLeg -1.040285 -0.000000 0.000000
LeftFoot -18.419654 13.091291 -27.667778
LeftToeBase 17.056902 -0.000000 -0.000000
RightUpLeg 6.570000 7.045224 8.869833
RightLeg 2.166323 -0.000000 -0.000000
RightFoot -9.466100 -9.758967 10.564445
RightToeBase 13.978888 -0.000000 -0.000000
3839
root 1.166690 32.212757 0.419027 -2.003027 -20.040386 -2.204173
Spine 2.718144 -14.958440 -5.064020
Head 14.231686 -0.268762 7.098537
LeftShoulder -11.780447 3.132767 30.407057
LeftArm -9.778485 41.266368 -109.190457
LeftForeArm 4.784624 -0.000000 18.568583
LeftHand 9.744696 -0.000000 -5.046947
LeftHandThumb1 -26.253704 0.000000 33.147579
RightShoulder -26.383990 -20.205820 -42.885268
RightArm 158.079972 120.259728 210.385884
RightForeArm 25.275080 -0.000000 2.792680
RightHand 27.467324 0.000000 -18.894795
RightHandThumb1 -24.326973 -0.000000 -32.862282
LeftUpLeg 16.310630 20.928174 9.130970
LeftLeg -0.988596 -0.000000 0.000000
LeftFoot -18.399172 13.060610 -27.588083
LeftToeBase 16.870912 -0.000000 -0.000000
RightUpLeg 6.606816 7.046643 8.872632
RightLeg 2.158261 -0.000000 -0.000000
RightFoot -9.502838 -9.835618 10.606566
RightToeBase 14.021607 -0.000000 -0.000000
3840
root 1.163643 32.212383 0.425113 -2.035011 -19.943817 -2.198590
Spine 2.714918 -15.019733 -5.063804
Head 14.237341 -0.278942 7.109299
LeftShoulder -11.810856 3.140552 30.394409
LeftArm -9.754695 41.215038 -109.150393
LeftForeArm 4.904048 0.000000 18.540882
LeftHand 9.645058 -0.000000 -5.276562
LeftHandThumb1 -26.253704 0.000000 33.147579
RightShoulder -26.402642 -20.186687 -42.909103
RightArm 157.719781 120.040871 210.101831
RightForeArm 25.184267 -0.000000 2.830612
RightHand 27.454967 -0.000000 -18.898608
RightHandThumb1 -24.326973 -0.000000 -32.862282
LeftUpLeg 16.306121 20.976975 9.174324
LeftLeg -0.941340 -0.000000 0.000000
LeftFoot -18.394749 12.916997 -27.647784
LeftToeBase 17.127703 -0.000000 -0.000000
RightUpLeg 6.651633 7.025565 8.881740
RightLeg 2.158531 -0.000000 -0.000000
RightFoot -9.533652 -9.904307 10.607387
RightToeBase 14.021419 -0.000000 -0.000000
3841
root 1.161453 32.211517 0.430484 -2.074091 -19.861658 -2.177278
Spine 2.718856 -15.035535 -5.083338
Head 14.229000 -0.322820 7.132463
LeftShoulder -11.832270 3.127634 30.398744
LeftArm -9.708169 41.149106 -109.115242
LeftForeArm 5.000665 0.000000 18.461349
LeftHand 9.649993 -0.000000 -5.324527
LeftHandThumb1 -26.253704 0.000000 33.147579
RightShoulder -26.432481 -20.156409 -42.936134
RightArm 157.397645 119.982331 209.847962
RightForeArm 25.047303 0.000000 2.877151
RightHand 27.417931 -0.000000 -18.875466
RightHandThumb1 -24.326973 -0.000000 -32.862282
LeftUpLeg 16.308674 20.953099 9.176536
LeftLeg -0.898767 -0.000000 0.000000
LeftFoot -18.378008 12.868632 -27.627679
LeftToeBase 17.055546 -0.000000 -0.000000
RightUpLeg 6.707408 7.097423 8.881426
RightLeg 2.139236 -0.000000 -0.000000
RightFoot -9.591112 -10.011883 10.691242
RightToeBase 14.067009 -0.000000 -0.000000
3842
root 1.160000 32.211086 0.435677 -2.117476 -19.761063 -2.153796
Spine 2.729207 -15.068326 -5.106844
Head 14.235521 -0.367289 7.145783
LeftShoulder -11.847114 3.078564 30.400575
LeftArm -9.720082 41.078766 -109.103286
LeftForeArm 5.080593 0.000000 18.407299
LeftHand 9.682053 -0.000000 -5.276995
LeftHandThumb1 -26.253704 0.000000 33.147579
RightShoulder -26.432696 -20.117888 -42.966824
RightArm 157.029681 119.989840 209.550769
RightForeArm 24.844503 -0.000000 2.950007
RightHand 27.387938 0.000000 -18.777564
RightHandThumb1 -24.326973 -0.000000 -32.862282
LeftUpLeg 16.305444 20.896590 9.168979
LeftLeg -0.843626 -0.000000 0.000000
LeftFoot -18.383271 12.812186 -27.620211
LeftToeBase 16.975058 -0.000000 -0.000000
RightUpLeg 6.750287 7.076413 8.872982
RightLeg 2.152409 -0.000000 -0.000000
RightFoot -9.652057 -10.076222 10.710429
RightToeBase 14.082924 -0.000000 -0.000000
3843
root 1.159424 32.211140 0.441444 -2.152788 -19.664140 -2.131599
Spine 2.725762 -15.091636 -5.125276
Head 14.258905 -0.437229 7.162245
LeftShoulder -11.842283 3.068319 30.389428
LeftArm -9.708890 41.053702 -109.068973
LeftForeArm 5.028968 -0.000000 18.392283
LeftHand 9.638988 -0.000000 -4.900915
LeftHandThumb1 -26.253704 0.000000 33.147579
RightShoulder -26.436971 -20.121799 -42.967457
RightArm 156.806558 120.124823 209.365800
RightForeArm 24.684856 -0.000000 2.992430
RightHand 27.396890 -0.000000 -18.676560
RightHandThumb1 -24.326973 -0.000000 -32.862282
LeftUpLeg 16.308193 20.845324 9.159861
LeftLeg -0.834762 -0.000000 0.000000
LeftFoot -18.342361 12.788431 -27.579878
LeftToeBase 17.070313 -0.000000 -0.000000
RightUpLeg 6.761493 6.959704 8.857538
RightLeg 2.204804 -0.000000 -0.000000
RightFoot -9.690056 -10.104202 10.639924
RightToeBase 14.033931 -0.000000 -0.000000
